<?plantuml 1.2026.0?><svg xmlns="http://www.w3.org/2000/svg" xmlns:xlink="http://www.w3.org/1999/xlink" contentStyleType="text/css" data-diagram-type="CLASS" height="361px" preserveAspectRatio="none" style="width:462px;height:361px;background:#1A1A2E;" version="1.1" viewBox="0 0 462 361" width="462px" zoomAndPan="magnify"><defs/><g><rect fill="#1A1A2E" height="361" style="stroke:none;stroke-width:1;" width="462" x="0" y="0"/><!--cluster LIMA Node--><g class="cluster" data-qualified-name="LIMA Node" data-source-line="29" id="ent0002"><path d="M8.5,6.0376 L100.1665,6.0376 A3.75,3.75 0 0 1 102.6665,8.5376 L109.6665,29.4985 L452.5,29.4985 A2.5,2.5 0 0 1 455,31.9985 L455,351.5376 A2.5,2.5 0 0 1 452.5,354.0376 L8.5,354.0376 A2.5,2.5 0 0 1 6,351.5376 L6,8.5376 A2.5,2.5 0 0 1 8.5,6.0376" fill="#0F1A2E" style="stroke:#4A90D9;stroke-width:1.5;"/><line style="stroke:#4A90D9;stroke-width:1.5;" x1="6" x2="109.6665" y1="29.4985" y2="29.4985"/><text fill="#7EC8E3" font-family="Arial" font-size="15" font-weight="bold" lengthAdjust="spacing" textLength="90.6665" x="10" y="21.9609">LIMA Node</text></g><!--cluster Sensors--><g class="cluster" data-qualified-name="LIMA Node.Sensors" data-source-line="31" id="ent0003"><path d="M32.5,202.0376 L100.7144,202.0376 A3.75,3.75 0 0 1 103.2144,204.5376 L110.2144,225.4985 L428.5,225.4985 A2.5,2.5 0 0 1 431,227.9985 L431,327.5376 A2.5,2.5 0 0 1 428.5,330.0376 L32.5,330.0376 A2.5,2.5 0 0 1 30,327.5376 L30,204.5376 A2.5,2.5 0 0 1 32.5,202.0376" fill="#0F1A2E" style="stroke:#4A90D9;stroke-width:1.5;"/><line style="stroke:#4A90D9;stroke-width:1.5;" x1="30" x2="110.2144" y1="225.4985" y2="225.4985"/><text fill="#7EC8E3" font-family="Arial" font-size="15" font-weight="bold" lengthAdjust="spacing" textLength="67.2144" x="34" y="217.9609">Sensors</text></g><!--cluster MCU--><g class="cluster" data-qualified-name="LIMA Node.MCU" data-source-line="40" id="ent0007"><path d="M144.5,50.0376 L183.6152,50.0376 A3.75,3.75 0 0 1 186.1152,52.5376 L193.1152,73.4985 L311.5,73.4985 A2.5,2.5 0 0 1 314,75.9985 L314,175.5376 A2.5,2.5 0 0 1 311.5,178.0376 L144.5,178.0376 A2.5,2.5 0 0 1 142,175.5376 L142,52.5376 A2.5,2.5 0 0 1 144.5,50.0376" fill="#0F1A2E" style="stroke:#4A90D9;stroke-width:1.5;"/><line style="stroke:#4A90D9;stroke-width:1.5;" x1="142" x2="193.1152" y1="73.4985" y2="73.4985"/><text fill="#7EC8E3" font-family="Arial" font-size="15" font-weight="bold" lengthAdjust="spacing" textLength="38.1152" x="146" y="65.9609">MCU</text></g><g><rect fill="#0D3320" height="57.25" rx="12.5" ry="12.5" style="stroke:#4A90D9;stroke-width:2;" width="95.8828" x="319" y="247.5376"/><line style="stroke:#4A90D9;stroke-width:2;" x1="319" x2="414.8828" y1="276.1626" y2="276.1626"/><text fill="#FFFFFF" font-family="Arial" font-size="16" lengthAdjust="spacing" textLength="54.2422" x="339.8203" y="267.3892">Motion</text><text fill="#FFFFFF" font-family="Arial" font-size="16" lengthAdjust="spacing" textLength="75.8828" x="324" y="296.0142">MPU6050</text></g><g><rect fill="#2A1A0A" height="57.25" rx="12.5" ry="12.5" style="stroke:#4A90D9;stroke-width:2;" width="108.6719" x="173.5" y="247.5376"/><line style="stroke:#4A90D9;stroke-width:2;" x1="173.5" x2="282.1719" y1="276.1626" y2="276.1626"/><text fill="#FFFFFF" font-family="Arial" font-size="16" lengthAdjust="spacing" textLength="88.6719" x="183.5" y="267.3892">Barometric</text><text fill="#FFFFFF" font-family="Arial" font-size="16" lengthAdjust="spacing" textLength="65.4297" x="178.5" y="296.0142">BME280</text></g><g><rect fill="#2A1A4A" height="75.875" rx="12.5" ry="12.5" style="stroke:#4A90D9;stroke-width:2;" width="91.3594" x="46.5" y="238.0376"/><line style="stroke:#4A90D9;stroke-width:2;" x1="46.5" x2="137.8594" y1="285.2876" y2="285.2876"/><text fill="#FFFFFF" font-family="Arial" font-size="16" lengthAdjust="spacing" textLength="71.3594" x="56.5" y="257.8892">Realtime</text><text fill="#FFFFFF" font-family="Arial" font-size="16" lengthAdjust="spacing" textLength="43.4688" x="56.5" y="276.5142">Clock</text><text fill="#FFFFFF" font-family="Arial" font-size="16" lengthAdjust="spacing" textLength="63.1953" x="51.5" y="305.1392">DS3231</text></g><g><rect fill="#1A3060" height="75.875" rx="12.5" ry="12.5" style="stroke:#4A90D9;stroke-width:2;" width="139.6563" x="158" y="86.0376"/><line style="stroke:#4A90D9;stroke-width:2;" x1="158" x2="297.6563" y1="114.6626" y2="114.6626"/><text fill="#FFFFFF" font-family="Arial" font-size="16" lengthAdjust="spacing" textLength="79.0547" x="188.3008" y="105.8892">Controller</text><text fill="#FFFFFF" font-family="Arial" font-size="16" lengthAdjust="spacing" textLength="81.3594" x="163" y="134.5142">nRF52840</text><text fill="#FFFFFF" font-family="Arial" font-size="16" lengthAdjust="spacing" textLength="119.6563" x="163" y="153.1392">CryptoCell-310</text></g><!--reverse link mcu to motion--><g class="link" data-entity-1="ent0008" data-entity-2="ent0004" data-link-type="dependency" data-source-line="50" id="lnk10"><path codeLine="50" d="M273.4355,166.2143 C284.0955,176.3143 291.03,183.3076 301,194.0376 C316.8,211.0476 333.3,231.2976 345.85,247.2976" fill="none" id="mcu-backto-motion" style="stroke:#7EC8E3;stroke-width:1;"/><polygon fill="#7EC8E3" points="269.08,162.0876,272.8621,171.1813,272.7096,165.5265,278.3644,165.374,269.08,162.0876" style="stroke:#7EC8E3;stroke-width:1;"/></g><!--reverse link mcu to baro--><g class="link" data-entity-1="ent0008" data-entity-2="ent0005" data-link-type="dependency" data-source-line="51" id="lnk12"><path codeLine="51" d="M228,168.1176 C228,194.4876 228,223.3576 228,247.3276" fill="none" id="mcu-backto-baro" style="stroke:#7EC8E3;stroke-width:1;"/><polygon fill="#7EC8E3" points="228,162.1176,224,171.1176,228,167.1176,232,171.1176,228,162.1176" style="stroke:#7EC8E3;stroke-width:1;"/></g><!--reverse link mcu to rtc--><g class="link" data-entity-1="ent0008" data-entity-2="ent0006" data-link-type="dependency" data-source-line="52" id="lnk14"><path codeLine="52" d="M183.0918,166.203 C172.5718,176.303 165.78,183.2776 156,194.0376 C143.46,207.8276 130.55,223.7876 119.64,237.8676" fill="none" id="mcu-backto-rtc" style="stroke:#7EC8E3;stroke-width:1;"/><polygon fill="#7EC8E3" points="187.42,162.0476,178.1575,165.3952,183.8132,165.5104,183.698,171.1661,187.42,162.0476" style="stroke:#7EC8E3;stroke-width:1;"/></g></g></svg>